<svg width="24" height="24" viewBox="0 0 24 24" fill="none" xmlns="http://www.w3.org/2000/svg">
  <g id=" icon/&#232;&#167;&#134;&#233;&#162;&#145;&#229;&#133;&#179;">
    <path id="Subtract" fill-rule="evenodd" clip-rule="evenodd"
      d="M3.37083 7.37083C3.16604 7.48954 2.97573 7.63518 2.80546 7.80546C2.28973 8.32118 2 9.02065 2 9.75V17.25C2 17.9793 2.28973 18.6788 2.80546 19.1945C3.32118 19.7103 4.02065 20 4.75 20H13.25C13.9793 20 14.6788 19.7103 15.1945 19.1945L3.37083 7.37083ZM16 17.1716V15.656L19.419 18.701C20.224 19.418 21.5 18.846 21.5 17.767V8.865C21.5 7.785 20.224 7.214 19.419 7.931L16 10.976V9.75C16 9.02065 15.7103 8.32118 15.1945 7.80546C14.6788 7.28973 13.9793 7 13.25 7H5.82843L16 17.1716Z"
      fill="white" />
    <rect id="Rectangle 12" x="3" y="4" width="2" height="24" rx="1" transform="rotate(-45 3 4)" fill="white" />
  </g>
</svg>