<svg width="24" height="25" viewBox="0 0 24 25" fill="none" xmlns="http://www.w3.org/2000/svg">
  <g id="icon/&#233;&#186;&#166;&#229;&#133;&#139;&#233;&#163;&#142;&#229;&#188;&#128;">
    <path id="Vector"
      d="M12 16.5C14.206 16.5 16 14.705 16 12.5V6.5C16 4.294 14.206 2.5 12 2.5C9.794 2.5 8 4.294 8 6.5V12.5C8 14.705 9.794 16.5 12 16.5ZM19 12.5V10.5C19 10.2348 18.8946 9.98043 18.7071 9.79289C18.5196 9.60536 18.2652 9.5 18 9.5C17.7348 9.5 17.4804 9.60536 17.2929 9.79289C17.1054 9.98043 17 10.2348 17 10.5V12.5C17 15.257 14.757 17.5 12 17.5C9.243 17.5 7 15.257 7 12.5V10.5C7 10.2348 6.89464 9.98043 6.70711 9.79289C6.51957 9.60536 6.26522 9.5 6 9.5C5.73478 9.5 5.48043 9.60536 5.29289 9.79289C5.10536 9.98043 5 10.2348 5 10.5V12.5C5 16.02 7.613 18.932 11 19.42V20.5H8C7.73478 20.5 7.48043 20.6054 7.29289 20.7929C7.10536 20.9804 7 21.2348 7 21.5C7 21.7652 7.10536 22.0196 7.29289 22.2071C7.48043 22.3946 7.73478 22.5 8 22.5H16C16.2652 22.5 16.5196 22.3946 16.7071 22.2071C16.8946 22.0196 17 21.7652 17 21.5C17 21.2348 16.8946 20.9804 16.7071 20.7929C16.5196 20.6054 16.2652 20.5 16 20.5H13V19.42C16.387 18.932 19 16.02 19 12.5Z"
      fill="white" />
  </g>
</svg>