<svg width="24" height="24" viewBox="0 0 24 24" fill="none" xmlns="http://www.w3.org/2000/svg">
  <g id=" icon/&#232;&#167;&#134;&#233;&#162;&#145;&#229;&#188;&#128;">
    <path id="Vector"
      d="M4.75 5C4.02065 5 3.32118 5.28973 2.80546 5.80546C2.28973 6.32118 2 7.02065 2 7.75V15.25C2 15.9793 2.28973 16.6788 2.80546 17.1945C3.32118 17.7103 4.02065 18 4.75 18H13.25C13.9793 18 14.6788 17.7103 15.1945 17.1945C15.7103 16.6788 16 15.9793 16 15.25V13.656L19.419 16.701C20.224 17.418 21.5 16.846 21.5 15.767V6.865C21.5 5.785 20.224 5.214 19.419 5.931L16 8.976V7.75C16 7.02065 15.7103 6.32118 15.1945 5.80546C14.6788 5.28973 13.9793 5 13.25 5H4.75Z"
      fill="white" />
  </g>
</svg>