<svg width="24" height="24" viewBox="0 0 24 24" fill="none" xmlns="http://www.w3.org/2000/svg">
  <g id="icon/&#233;&#186;&#166;&#229;&#133;&#139;&#233;&#163;&#142;&#229;&#133;&#179;">
    <rect id="Rectangle 12" x="3" y="2" width="2" height="24" rx="1" transform="rotate(-45 3 2)" fill="white" />
    <path id="Subtract" fill-rule="evenodd" clip-rule="evenodd"
      d="M8 10V12C8 14.205 9.794 16 12 16C12.5863 16 13.1435 15.8732 13.6456 15.6456L8 10ZM14.3906 16.3906C13.68 16.779 12.8653 17 12 17C9.243 17 7 14.757 7 12V10C7 9.73478 6.89464 9.48043 6.70711 9.29289C6.51957 9.10536 6.26522 9 6 9C5.73478 9 5.48043 9.10536 5.29289 9.29289C5.10536 9.48043 5 9.73478 5 10V12C5 15.52 7.613 18.432 11 18.92V20H8C7.73478 20 7.48043 20.1054 7.29289 20.2929C7.10536 20.4804 7 20.7348 7 21C7 21.2652 7.10536 21.5196 7.29289 21.7071C7.48043 21.8946 7.73478 22 8 22H16C16.2652 22 16.5196 21.8946 16.7071 21.7071C16.8946 21.5196 17 21.2652 17 21C17 20.7348 16.8946 20.4804 16.7071 20.2929C16.5196 20.1054 16.2652 20 16 20H13V18.92C14.0374 18.7705 15.0022 18.3937 15.8416 17.8416L14.3906 16.3906ZM17.342 16.5136L15.924 15.0955C16.5975 14.2435 17 13.1679 17 12V10C17 9.73478 17.1054 9.48043 17.2929 9.29289C17.4804 9.10536 17.7348 9 18 9C18.2652 9 18.5196 9.10536 18.7071 9.29289C18.8946 9.48043 19 9.73478 19 10V12C19 13.7205 18.3758 15.2957 17.342 16.5136ZM15.211 14.3826L8 7.17157V6C8 3.794 9.794 2 12 2C14.206 2 16 3.794 16 6V12C16 12.8918 15.7065 13.7166 15.211 14.3826Z"
      fill="white" />
  </g>
</svg>