<svg width="24" height="24" viewBox="0 0 24 24" xmlns="http://www.w3.org/2000/svg" fill="#fff">
  <g id="icon/&#230;&#140;&#130;&#230;&#150;&#173;">
    <path id="Vector"
      d="M22.8575 12.714C23.0294 13.9526 23.1421 15.6468 22.6072 16.2953C21.7231 17.3681 16.1252 17.3681 16.1252 15.2225C16.1252 14.1426 17.0465 13.434 16.1623 12.3612C15.2933 11.307 13.734 11.2898 12 11.2884C10.266 11.287 8.7081 11.3055 7.83768 12.3612C6.95351 13.434 7.87481 14.1426 7.87481 15.2225C7.87481 17.3667 2.27692 17.3667 1.39275 16.2953C0.857855 15.6468 0.97061 13.9526 1.14249 12.714C1.2745 11.8869 1.60864 10.9955 2.67981 9.85702C4.28589 8.29994 6.71563 7.02857 11.9147 7H12.088C17.2871 7.02714 19.7169 8.29994 21.3229 9.85702C22.3927 10.9955 22.7283 11.8869 22.8603 12.714H22.8575Z" />
  </g>
</svg>